<mxfile host="Electron" agent="Mozilla/5.0 (Windows NT 10.0; Win64; x64) AppleWebKit/537.36 (KHTML, like Gecko) draw.io/24.7.17 Chrome/128.0.6613.36 Electron/32.0.1 Safari/537.36" version="24.7.17">
  <diagram name="Trang-1" id="sMpMoGJhlvqj2Cr2Iftt">
    <mxGraphModel dx="1434" dy="844" grid="1" gridSize="10" guides="1" tooltips="1" connect="1" arrows="1" fold="1" page="1" pageScale="1" pageWidth="850" pageHeight="1100" math="0" shadow="0">
      <root>
        <mxCell id="0" />
        <mxCell id="1" parent="0" />
        <mxCell id="_OvMld2T6wZasRQ2_h9S-21" value="" style="edgeStyle=orthogonalEdgeStyle;rounded=0;orthogonalLoop=1;jettySize=auto;html=1;" edge="1" parent="1" source="6OdMytKb5-loGxPtuCH9-1" target="6OdMytKb5-loGxPtuCH9-15">
          <mxGeometry relative="1" as="geometry" />
        </mxCell>
        <mxCell id="6OdMytKb5-loGxPtuCH9-1" value="Bắt đầu" style="rounded=1;whiteSpace=wrap;html=1;" parent="1" vertex="1">
          <mxGeometry x="360" y="10" width="120" height="60" as="geometry" />
        </mxCell>
        <mxCell id="6OdMytKb5-loGxPtuCH9-6" value="" style="edgeStyle=orthogonalEdgeStyle;rounded=0;orthogonalLoop=1;jettySize=auto;html=1;" parent="1" source="6OdMytKb5-loGxPtuCH9-2" target="6OdMytKb5-loGxPtuCH9-3" edge="1">
          <mxGeometry relative="1" as="geometry" />
        </mxCell>
        <mxCell id="6OdMytKb5-loGxPtuCH9-2" value="Xác định vị trí của cạnh đầu vào" style="rounded=0;whiteSpace=wrap;html=1;" parent="1" vertex="1">
          <mxGeometry x="520" y="100" width="120" height="60" as="geometry" />
        </mxCell>
        <mxCell id="_OvMld2T6wZasRQ2_h9S-25" style="edgeStyle=orthogonalEdgeStyle;rounded=0;orthogonalLoop=1;jettySize=auto;html=1;exitX=0.5;exitY=1;exitDx=0;exitDy=0;entryX=0.5;entryY=0;entryDx=0;entryDy=0;" edge="1" parent="1" source="6OdMytKb5-loGxPtuCH9-3" target="6OdMytKb5-loGxPtuCH9-7">
          <mxGeometry relative="1" as="geometry" />
        </mxCell>
        <mxCell id="6OdMytKb5-loGxPtuCH9-3" value="Xoá cạnh ở vị trí đó" style="rounded=0;whiteSpace=wrap;html=1;" parent="1" vertex="1">
          <mxGeometry x="520" y="200" width="120" height="60" as="geometry" />
        </mxCell>
        <mxCell id="_OvMld2T6wZasRQ2_h9S-26" value="" style="edgeStyle=orthogonalEdgeStyle;rounded=0;orthogonalLoop=1;jettySize=auto;html=1;" edge="1" parent="1" source="6OdMytKb5-loGxPtuCH9-7" target="6OdMytKb5-loGxPtuCH9-9">
          <mxGeometry relative="1" as="geometry" />
        </mxCell>
        <mxCell id="6OdMytKb5-loGxPtuCH9-7" value="Tạo một set để chứa đỉnh đã thăm" style="rounded=0;whiteSpace=wrap;html=1;" parent="1" vertex="1">
          <mxGeometry x="520" y="320" width="120" height="60" as="geometry" />
        </mxCell>
        <mxCell id="6OdMytKb5-loGxPtuCH9-12" value="" style="edgeStyle=orthogonalEdgeStyle;rounded=0;orthogonalLoop=1;jettySize=auto;html=1;" parent="1" source="6OdMytKb5-loGxPtuCH9-9" target="6OdMytKb5-loGxPtuCH9-11" edge="1">
          <mxGeometry relative="1" as="geometry" />
        </mxCell>
        <mxCell id="6OdMytKb5-loGxPtuCH9-9" value="Tạo một stack và thêm đỉnh đầu vào vô" style="rounded=0;whiteSpace=wrap;html=1;" parent="1" vertex="1">
          <mxGeometry x="520" y="409" width="120" height="60" as="geometry" />
        </mxCell>
        <mxCell id="6OdMytKb5-loGxPtuCH9-14" value="" style="edgeStyle=orthogonalEdgeStyle;rounded=0;orthogonalLoop=1;jettySize=auto;html=1;" parent="1" source="6OdMytKb5-loGxPtuCH9-11" target="6OdMytKb5-loGxPtuCH9-13" edge="1">
          <mxGeometry relative="1" as="geometry" />
        </mxCell>
        <mxCell id="_OvMld2T6wZasRQ2_h9S-5" style="edgeStyle=orthogonalEdgeStyle;rounded=0;orthogonalLoop=1;jettySize=auto;html=1;exitX=0;exitY=0.5;exitDx=0;exitDy=0;entryX=1;entryY=0.5;entryDx=0;entryDy=0;" edge="1" parent="1" source="6OdMytKb5-loGxPtuCH9-11" target="6OdMytKb5-loGxPtuCH9-20">
          <mxGeometry relative="1" as="geometry" />
        </mxCell>
        <mxCell id="6OdMytKb5-loGxPtuCH9-11" value="Nếu stack có&amp;nbsp;&lt;div&gt;chứa đỉnh bất kỳ&lt;/div&gt;" style="rhombus;whiteSpace=wrap;html=1;" parent="1" vertex="1">
          <mxGeometry x="525" y="499" width="110" height="110" as="geometry" />
        </mxCell>
        <mxCell id="6OdMytKb5-loGxPtuCH9-19" value="" style="edgeStyle=orthogonalEdgeStyle;rounded=0;orthogonalLoop=1;jettySize=auto;html=1;" parent="1" source="6OdMytKb5-loGxPtuCH9-13" target="6OdMytKb5-loGxPtuCH9-18" edge="1">
          <mxGeometry relative="1" as="geometry" />
        </mxCell>
        <mxCell id="6OdMytKb5-loGxPtuCH9-13" value="Xoá đỉnh đó ra khỏi stack. Và thêm vào set đã thăm" style="rounded=0;whiteSpace=wrap;html=1;" parent="1" vertex="1">
          <mxGeometry x="520" y="639" width="120" height="60" as="geometry" />
        </mxCell>
        <mxCell id="_OvMld2T6wZasRQ2_h9S-22" value="" style="edgeStyle=orthogonalEdgeStyle;rounded=0;orthogonalLoop=1;jettySize=auto;html=1;" edge="1" parent="1" source="6OdMytKb5-loGxPtuCH9-15" target="6OdMytKb5-loGxPtuCH9-2">
          <mxGeometry relative="1" as="geometry" />
        </mxCell>
        <mxCell id="6OdMytKb5-loGxPtuCH9-15" value="Đỉnh đầu vào&lt;div&gt;Cạnh đàu vào&lt;/div&gt;" style="shape=parallelogram;perimeter=parallelogramPerimeter;whiteSpace=wrap;html=1;fixedSize=1;" parent="1" vertex="1">
          <mxGeometry x="520" y="10" width="120" height="60" as="geometry" />
        </mxCell>
        <mxCell id="_OvMld2T6wZasRQ2_h9S-3" value="" style="edgeStyle=orthogonalEdgeStyle;rounded=0;orthogonalLoop=1;jettySize=auto;html=1;" edge="1" parent="1" source="6OdMytKb5-loGxPtuCH9-18" target="_OvMld2T6wZasRQ2_h9S-2">
          <mxGeometry relative="1" as="geometry" />
        </mxCell>
        <mxCell id="6OdMytKb5-loGxPtuCH9-18" value="Với mỗi cạnh trong đồ thị" style="rounded=0;whiteSpace=wrap;html=1;" parent="1" vertex="1">
          <mxGeometry x="520" y="739" width="120" height="60" as="geometry" />
        </mxCell>
        <mxCell id="_OvMld2T6wZasRQ2_h9S-11" style="edgeStyle=orthogonalEdgeStyle;rounded=0;orthogonalLoop=1;jettySize=auto;html=1;exitX=0;exitY=0.5;exitDx=0;exitDy=0;entryX=1;entryY=0.5;entryDx=0;entryDy=0;" edge="1" parent="1" source="6OdMytKb5-loGxPtuCH9-20" target="_OvMld2T6wZasRQ2_h9S-10">
          <mxGeometry relative="1" as="geometry" />
        </mxCell>
        <mxCell id="6OdMytKb5-loGxPtuCH9-20" value="Thêm cạnh đã xoá vô lại" style="rounded=0;whiteSpace=wrap;html=1;" parent="1" vertex="1">
          <mxGeometry x="350" y="524" width="120" height="60" as="geometry" />
        </mxCell>
        <mxCell id="_OvMld2T6wZasRQ2_h9S-2" value="Lấy 1 đỉnh kề thêm vào stack" style="rounded=0;whiteSpace=wrap;html=1;" vertex="1" parent="1">
          <mxGeometry x="520" y="829" width="120" height="60" as="geometry" />
        </mxCell>
        <mxCell id="_OvMld2T6wZasRQ2_h9S-4" value="Đúng" style="text;html=1;align=center;verticalAlign=middle;resizable=0;points=[];autosize=1;strokeColor=none;fillColor=none;" vertex="1" parent="1">
          <mxGeometry x="580" y="609" width="50" height="30" as="geometry" />
        </mxCell>
        <mxCell id="_OvMld2T6wZasRQ2_h9S-6" value="Sai" style="text;html=1;align=center;verticalAlign=middle;resizable=0;points=[];autosize=1;strokeColor=none;fillColor=none;" vertex="1" parent="1">
          <mxGeometry x="485" y="524" width="40" height="30" as="geometry" />
        </mxCell>
        <mxCell id="_OvMld2T6wZasRQ2_h9S-17" style="edgeStyle=orthogonalEdgeStyle;rounded=0;orthogonalLoop=1;jettySize=auto;html=1;exitX=0;exitY=0.5;exitDx=0;exitDy=0;entryX=1;entryY=0.5;entryDx=0;entryDy=0;" edge="1" parent="1" source="_OvMld2T6wZasRQ2_h9S-10" target="_OvMld2T6wZasRQ2_h9S-16">
          <mxGeometry relative="1" as="geometry" />
        </mxCell>
        <mxCell id="_OvMld2T6wZasRQ2_h9S-18" style="edgeStyle=orthogonalEdgeStyle;rounded=0;orthogonalLoop=1;jettySize=auto;html=1;exitX=0.5;exitY=1;exitDx=0;exitDy=0;entryX=0.5;entryY=0;entryDx=0;entryDy=0;" edge="1" parent="1" source="_OvMld2T6wZasRQ2_h9S-10" target="_OvMld2T6wZasRQ2_h9S-13">
          <mxGeometry relative="1" as="geometry" />
        </mxCell>
        <mxCell id="_OvMld2T6wZasRQ2_h9S-10" value="Nếu số lượng&amp;nbsp;&lt;div&gt;phần tử trong set&amp;nbsp;&lt;/div&gt;&lt;div&gt;đã thăm nhỏ hơn&lt;/div&gt;&lt;div&gt;&amp;nbsp;số lượng đỉnh&lt;/div&gt;" style="rhombus;whiteSpace=wrap;html=1;" vertex="1" parent="1">
          <mxGeometry x="170" y="484" width="140" height="140" as="geometry" />
        </mxCell>
        <mxCell id="_OvMld2T6wZasRQ2_h9S-12" value="Kết thúc" style="rounded=1;whiteSpace=wrap;html=1;" vertex="1" parent="1">
          <mxGeometry x="180" y="769" width="120" height="60" as="geometry" />
        </mxCell>
        <mxCell id="_OvMld2T6wZasRQ2_h9S-19" style="edgeStyle=orthogonalEdgeStyle;rounded=0;orthogonalLoop=1;jettySize=auto;html=1;exitX=0.5;exitY=1;exitDx=0;exitDy=0;entryX=0.5;entryY=0;entryDx=0;entryDy=0;" edge="1" parent="1" source="_OvMld2T6wZasRQ2_h9S-13" target="_OvMld2T6wZasRQ2_h9S-12">
          <mxGeometry relative="1" as="geometry" />
        </mxCell>
        <mxCell id="_OvMld2T6wZasRQ2_h9S-13" value="Trả về true" style="rounded=0;whiteSpace=wrap;html=1;" vertex="1" parent="1">
          <mxGeometry x="180" y="659" width="120" height="60" as="geometry" />
        </mxCell>
        <mxCell id="_OvMld2T6wZasRQ2_h9S-20" style="edgeStyle=orthogonalEdgeStyle;rounded=0;orthogonalLoop=1;jettySize=auto;html=1;exitX=0.5;exitY=1;exitDx=0;exitDy=0;entryX=0;entryY=0.5;entryDx=0;entryDy=0;" edge="1" parent="1" source="_OvMld2T6wZasRQ2_h9S-16" target="_OvMld2T6wZasRQ2_h9S-12">
          <mxGeometry relative="1" as="geometry" />
        </mxCell>
        <mxCell id="_OvMld2T6wZasRQ2_h9S-16" value="Trả về false" style="rounded=0;whiteSpace=wrap;html=1;" vertex="1" parent="1">
          <mxGeometry x="10" y="524" width="120" height="60" as="geometry" />
        </mxCell>
      </root>
    </mxGraphModel>
  </diagram>
</mxfile>
